# xmcd
#
# Track frame offsets: 
#        150
#        14753
#        34394
#        46790
#        65150
#        79865
#        94280
#        107664
#        127270
#        145402
#        166099
#        184188
#        198684
#
# Disc length: 2835 seconds
#
# Revision: 0
# Processed by: cddbd v1.5.2PL0 Copyright (c) Steve Scherf et al.
# Submitted via: ExactAudioCopy v1.0b3
#
DISCID=c40b110d
DTITLE=The Nighthawks - 444
DYEAR=2014
DGENRE=Blues
TTITLE0=Walk That Walk
TTITLE1=Livin' The Blues
TTITLE2=444 A.M.
TTITLE3=You're Gone
TTITLE4=Honky Tonk Queen
TTITLE5=Got A Lot Of Livin'
TTITLE6=Crawfish
TTITLE7=Price Of Love
TTITLE8=High Snakes
TTITLE9=Nothin' But The Blues
TTITLE10=No Secrets
TTITLE11=Louisiana Blues
TTITLE12=Roadside Cross
EXTD=
EXTT0=
EXTT1=
EXTT2=
EXTT3=
EXTT4=
EXTT5=
EXTT6=
EXTT7=
EXTT8=
EXTT9=
EXTT10=
EXTT11=
EXTT12=
PLAYORDER=
